<mxfile host="app.diagrams.net" modified="2021-04-26T09:26:39.456Z" agent="5.0 (Macintosh; Intel Mac OS X 10_15_7) AppleWebKit/537.36 (KHTML, like Gecko) Chrome/90.0.4430.85 Safari/537.36" etag="iSHJ37BcyK1c-xWvuEsj" version="14.6.6" type="github">
  <diagram id="vJuV_FMNn_A-Sfl7kj0c" name="Page-1">
    <mxGraphModel dx="1255" dy="786" grid="1" gridSize="10" guides="1" tooltips="1" connect="1" arrows="1" fold="1" page="1" pageScale="1" pageWidth="827" pageHeight="1169" math="0" shadow="0">
      <root>
        <mxCell id="0" />
        <mxCell id="1" parent="0" />
        <mxCell id="o0-Sy-0fJhF7IHFYmnxa-1" value="" style="shape=flexArrow;endArrow=classic;html=1;fillColor=#f8cecc;strokeColor=#b85450;startArrow=none;" edge="1" parent="1" source="o0-Sy-0fJhF7IHFYmnxa-6">
          <mxGeometry width="50" height="50" relative="1" as="geometry">
            <mxPoint x="110" y="200" as="sourcePoint" />
            <mxPoint x="760" y="200" as="targetPoint" />
          </mxGeometry>
        </mxCell>
        <mxCell id="o0-Sy-0fJhF7IHFYmnxa-2" value="事件流" style="text;html=1;strokeColor=none;fillColor=none;align=center;verticalAlign=middle;whiteSpace=wrap;rounded=0;" vertex="1" parent="1">
          <mxGeometry x="780" y="190" width="40" height="20" as="geometry" />
        </mxCell>
        <mxCell id="o0-Sy-0fJhF7IHFYmnxa-3" value="" style="ellipse;whiteSpace=wrap;html=1;aspect=fixed;" vertex="1" parent="1">
          <mxGeometry x="140" y="195" width="10" height="10" as="geometry" />
        </mxCell>
        <mxCell id="o0-Sy-0fJhF7IHFYmnxa-4" value="" style="shape=flexArrow;endArrow=none;html=1;fillColor=#f8cecc;strokeColor=#b85450;" edge="1" parent="1" target="o0-Sy-0fJhF7IHFYmnxa-3">
          <mxGeometry width="50" height="50" relative="1" as="geometry">
            <mxPoint x="110" y="200" as="sourcePoint" />
            <mxPoint x="760" y="200" as="targetPoint" />
          </mxGeometry>
        </mxCell>
        <mxCell id="o0-Sy-0fJhF7IHFYmnxa-5" value="20210101" style="text;html=1;strokeColor=none;fillColor=none;align=center;verticalAlign=middle;whiteSpace=wrap;rounded=0;" vertex="1" parent="1">
          <mxGeometry x="125" y="160" width="40" height="20" as="geometry" />
        </mxCell>
        <mxCell id="o0-Sy-0fJhF7IHFYmnxa-6" value="" style="ellipse;whiteSpace=wrap;html=1;aspect=fixed;" vertex="1" parent="1">
          <mxGeometry x="530" y="195" width="10" height="10" as="geometry" />
        </mxCell>
        <mxCell id="o0-Sy-0fJhF7IHFYmnxa-7" value="" style="shape=flexArrow;endArrow=none;html=1;fillColor=#f8cecc;strokeColor=#b85450;startArrow=none;" edge="1" parent="1" source="o0-Sy-0fJhF7IHFYmnxa-3" target="o0-Sy-0fJhF7IHFYmnxa-6">
          <mxGeometry width="50" height="50" relative="1" as="geometry">
            <mxPoint x="150" y="200" as="sourcePoint" />
            <mxPoint x="760" y="200" as="targetPoint" />
          </mxGeometry>
        </mxCell>
        <mxCell id="o0-Sy-0fJhF7IHFYmnxa-8" value="20210107" style="text;html=1;strokeColor=none;fillColor=none;align=center;verticalAlign=middle;whiteSpace=wrap;rounded=0;" vertex="1" parent="1">
          <mxGeometry x="515" y="160" width="40" height="20" as="geometry" />
        </mxCell>
        <mxCell id="o0-Sy-0fJhF7IHFYmnxa-9" value="" style="endArrow=classic;html=1;exitX=0.5;exitY=1;exitDx=0;exitDy=0;entryX=0;entryY=0;entryDx=0;entryDy=0;" edge="1" parent="1" source="o0-Sy-0fJhF7IHFYmnxa-3" target="o0-Sy-0fJhF7IHFYmnxa-11">
          <mxGeometry width="50" height="50" relative="1" as="geometry">
            <mxPoint x="160" y="390" as="sourcePoint" />
            <mxPoint x="280" y="430" as="targetPoint" />
          </mxGeometry>
        </mxCell>
        <mxCell id="o0-Sy-0fJhF7IHFYmnxa-10" value="" style="endArrow=classic;html=1;exitX=0.5;exitY=1;exitDx=0;exitDy=0;entryX=1;entryY=0;entryDx=0;entryDy=0;" edge="1" parent="1" source="o0-Sy-0fJhF7IHFYmnxa-6" target="o0-Sy-0fJhF7IHFYmnxa-11">
          <mxGeometry width="50" height="50" relative="1" as="geometry">
            <mxPoint x="155" y="215" as="sourcePoint" />
            <mxPoint x="340" y="430" as="targetPoint" />
          </mxGeometry>
        </mxCell>
        <mxCell id="o0-Sy-0fJhF7IHFYmnxa-11" value="回溯" style="rounded=0;whiteSpace=wrap;html=1;fillColor=#fff2cc;strokeColor=#d6b656;" vertex="1" parent="1">
          <mxGeometry x="260" y="380" width="120" height="20" as="geometry" />
        </mxCell>
        <mxCell id="o0-Sy-0fJhF7IHFYmnxa-12" value="" style="shape=flexArrow;endArrow=classic;html=1;" edge="1" parent="1">
          <mxGeometry width="50" height="50" relative="1" as="geometry">
            <mxPoint x="319.5" y="410" as="sourcePoint" />
            <mxPoint x="319.5" y="470" as="targetPoint" />
          </mxGeometry>
        </mxCell>
        <mxCell id="o0-Sy-0fJhF7IHFYmnxa-13" value="引擎" style="rounded=0;whiteSpace=wrap;html=1;fillColor=#f5f5f5;strokeColor=#666666;fontColor=#333333;" vertex="1" parent="1">
          <mxGeometry x="260" y="480" width="120" height="40" as="geometry" />
        </mxCell>
        <mxCell id="o0-Sy-0fJhF7IHFYmnxa-14" value="" style="shape=flexArrow;endArrow=classic;html=1;" edge="1" parent="1">
          <mxGeometry width="50" height="50" relative="1" as="geometry">
            <mxPoint x="319.5" y="530" as="sourcePoint" />
            <mxPoint x="319.5" y="590" as="targetPoint" />
          </mxGeometry>
        </mxCell>
        <mxCell id="o0-Sy-0fJhF7IHFYmnxa-15" value="Metrics" style="rounded=0;whiteSpace=wrap;html=1;fillColor=#dae8fc;strokeColor=#6c8ebf;" vertex="1" parent="1">
          <mxGeometry x="260" y="600" width="120" height="40" as="geometry" />
        </mxCell>
        <mxCell id="o0-Sy-0fJhF7IHFYmnxa-16" value="" style="shape=curlyBracket;whiteSpace=wrap;html=1;rounded=1;flipH=1;" vertex="1" parent="1">
          <mxGeometry x="404" y="380" width="16" height="260" as="geometry" />
        </mxCell>
        <mxCell id="o0-Sy-0fJhF7IHFYmnxa-17" value="&lt;b&gt;整个回溯流程可以做到小时级&lt;/b&gt;" style="text;html=1;strokeColor=none;fillColor=none;align=center;verticalAlign=middle;whiteSpace=wrap;rounded=0;" vertex="1" parent="1">
          <mxGeometry x="440" y="485" width="70" height="50" as="geometry" />
        </mxCell>
      </root>
    </mxGraphModel>
  </diagram>
</mxfile>
